<?xml version="1.0" encoding="UTF-8" standalone="no"?><!DOCTYPE svg PUBLIC "-//W3C//DTD SVG 1.1//EN" "http://www.w3.org/Graphics/SVG/1.1/DTD/svg11.dtd"><svg width="100%" height="100%" viewBox="0 0 284 284" version="1.1" xmlns="http://www.w3.org/2000/svg" xmlns:xlink="http://www.w3.org/1999/xlink" xml:space="preserve" xmlns:serif="http://www.serif.com/" style="fill-rule:evenodd;clip-rule:evenodd;stroke-linejoin:round;stroke-miterlimit:2;"><rect x="0" y="-0" width="283.465" height="283.465" style="fill:#fff;"/><path d="M-0,-0l-0,79.37l79.37,0l0,-79.37l-79.37,-0Zm90.709,-0l-0,11.339l22.677,-0l-0,-11.339l-22.677,-0Zm56.693,-0l-0,22.677l-22.678,0l0,22.677l-11.338,0l-0,-11.338l-11.339,-0l0,-11.339l-11.338,0l-0,34.016l11.338,-0l0,11.338l11.339,0l-0,11.339l11.338,0l0,-11.339l-11.338,0l-0,-11.338l22.677,-0l-0,34.016l11.339,-0l-0,-22.678l11.338,0l0,45.355l11.339,-0l-0,-11.339l11.338,0l0,11.339l11.339,-0l-0,-11.339l11.338,0l0,-11.338l-34.015,-0l-0,-22.678l-11.339,0l0,-11.338l-22.677,-0l-0,-11.339l34.016,0l-0,11.339l22.677,-0l-0,-11.339l-22.677,0l-0,-11.338l-11.339,-0l0,-34.016l-11.338,-0Zm56.692,-0l0,79.37l79.371,0l-0,-79.37l-79.371,-0Zm-136.063,11.339l0,56.692l-56.692,0l-0,-56.692l56.692,-0Zm113.386,-0l0,11.338l11.339,0l-0,-11.338l-11.339,-0Zm90.709,-0l-0,56.692l-56.693,0l0,-56.692l56.693,-0Zm-249.449,11.338l0,34.016l34.016,-0l-0,-34.016l-34.016,0Zm147.402,0l-0,11.339l11.338,-0l0,-11.339l-11.338,0Zm56.693,0l-0,34.016l34.015,-0l0,-34.016l-34.015,0Zm-136.063,45.354l-0,11.339l11.338,0l0,11.339l11.339,-0l-0,-11.339l-11.339,0l0,-11.339l-11.338,0Zm90.708,0l0,11.339l11.339,0l-0,-11.339l-11.339,0Zm-181.417,22.678l0,11.338l22.677,0l0,11.339l11.339,-0l-0,22.677l11.338,-0l0,-22.677l11.339,-0l-0,-11.339l-11.339,0l0,-11.338l-45.354,-0Zm68.031,-0l0,11.338l11.339,0l0,11.339l11.339,-0l-0,-11.339l-11.339,0l0,-11.338l-11.339,-0Zm22.678,-0l-0,11.338l11.338,0l0,11.339l11.339,-0l-0,-11.339l-11.339,0l0,-11.338l-11.338,-0Zm34.015,-0l0,34.015l11.339,0l-0,11.339l-11.339,-0l0,11.339l11.339,-0l-0,22.677l22.677,-0l0,11.338l-11.338,0l-0,11.339l-22.678,-0l0,11.338l45.355,0l-0,-11.338l11.338,-0l0,22.677l-22.677,0l0,22.677l11.339,0l-0,22.677l11.338,0l0,-11.338l22.677,-0l0,11.338l11.339,0l0,-22.677l11.339,0l-0,34.016l-22.678,-0l0,-11.339l-11.338,0l-0,11.339l11.338,-0l0,11.339l79.371,-0l-0,-11.339l-22.678,-0l0,-11.339l11.339,0l-0,-11.338l11.339,-0l-0,-22.677l-11.339,-0l-0,-11.339l11.339,0l-0,-45.354l-11.339,-0l-0,-11.339l-22.677,0l-0,11.339l22.677,-0l-0,11.338l-34.016,0l0,-45.354l-11.338,-0l-0,-11.339l-11.339,0l0,-11.338l-11.339,-0l0,11.338l-11.338,0l-0,22.678l11.338,-0l0,11.338l22.678,0l-0,11.339l-11.339,-0l0,11.338l-22.677,0l-0,-11.338l-11.339,-0l0,11.338l-11.338,0l-0,-11.338l-11.339,-0l0,-11.339l-11.338,0l-0,-11.338l11.338,-0l0,-11.339l11.339,-0l-0,-11.339l-22.677,0l-0,-22.677l-11.339,0l-0,-11.338l-11.339,-0Zm102.048,-0l-0,11.338l34.015,0l0,11.339l11.339,-0l-0,-11.339l-11.339,0l0,-11.338l-34.015,-0Zm45.354,-0l-0,11.338l11.339,0l-0,-11.338l-11.339,-0Zm-56.693,11.338l0,11.339l11.339,-0l-0,11.338l11.338,0l0,11.339l11.339,-0l-0,11.339l22.677,-0l-0,11.338l11.339,0l-0,-22.677l-22.678,-0l0,-11.339l-22.677,0l0,-11.338l-11.338,-0l-0,-11.339l-11.339,0Zm-215.433,11.339l-0,11.338l11.339,0l-0,-11.338l-11.339,-0Zm68.031,-0l0,11.338l11.339,0l0,11.339l-11.339,-0l0,11.339l11.339,-0l0,11.338l-11.339,0l0,-11.338l-22.677,-0l0,11.338l11.339,0l-0,11.339l34.016,-0l-0,-22.677l22.677,-0l-0,11.338l11.338,0l0,-11.338l-11.338,-0l-0,-11.339l-11.339,-0l0,-11.339l-22.677,0l0,-11.338l-11.339,-0Zm-56.692,22.677l-0,11.339l22.677,-0l-0,-11.339l-22.677,-0Zm158.74,11.339l-0,11.338l22.677,0l-0,-11.338l-22.677,-0Zm-158.74,11.338l-0,11.339l11.338,-0l0,-11.339l-11.338,0Zm22.677,0l-0,22.677l11.338,0l0,11.339l45.355,-0l-0,11.338l11.338,0l0,11.339l11.339,0l-0,11.339l11.338,-0l0,-22.678l-22.677,0l0,-11.338l-11.338,-0l-0,-11.339l-34.016,0l-0,-11.338l-11.339,-0l0,-11.339l-11.338,0Zm68.031,0l0,22.677l11.339,0l-0,-22.677l-11.339,0Zm-102.047,11.339l-0,11.338l11.339,0l-0,-11.338l-11.339,-0Zm124.724,-0l0,11.338l11.339,0l-0,-11.338l-11.339,-0Zm102.048,22.677l-0,34.016l-34.016,-0l-0,-34.016l34.016,-0Zm22.677,-0l-0,22.677l11.338,0l0,22.677l-11.338,0l-0,-11.338l-11.339,-0l0,-34.016l11.339,-0Zm22.677,-0l-0,11.338l-11.339,0l0,-11.338l11.339,-0Zm-272.126,11.338l-0,79.371l79.37,-0l0,-79.371l-79.37,0Zm204.094,0l0,11.339l11.339,0l0,-11.339l-11.339,0Zm-136.063,11.339l0,56.693l-56.692,-0l-0,-56.693l56.692,0Zm-45.354,11.339l0,34.015l34.016,0l-0,-34.015l-34.016,-0Zm79.37,-0l0,11.338l-11.338,0l-0,45.355l11.338,-0l0,-11.339l11.339,-0l-0,11.339l45.354,-0l0,-11.339l11.339,-0l-0,-11.339l-11.339,0l0,-11.338l-11.338,-0l-0,11.338l-11.339,0l-0,-22.677l-22.677,0l-0,-11.338l-11.339,-0Zm79.37,-0l0,11.338l-11.338,0l-0,-11.338l11.338,-0Zm-68.031,22.677l-0,11.338l11.338,0l0,11.339l-11.338,-0l-0,-11.339l-11.339,0l0,-11.338l11.339,-0Zm136.063,-0l-0,22.677l-11.339,-0l0,-22.677l11.339,-0Z"/></svg>